<svg width="18" height="18" viewBox="0 0 18 18" fill="none" xmlns="http://www.w3.org/2000/svg">
<path d="M3.19275 13.5375L6.06599 12.8196L6.23176 12.1564C5.16951 12.0125 4.13926 11.6902 3.18453 11.2032C3.07811 11.1394 3.01019 11.0272 3.00301 10.9034C2.99549 10.7796 3.04896 10.6598 3.14628 10.5827C3.15978 10.5737 4.50003 9.46762 4.50003 5.63532C4.50003 2.40326 5.25677 0.764386 6.75003 0.764386H6.97503C7.49309 0.208152 8.24431 -0.0698417 9.00002 0.0150247C10.4093 0.0150247 13.5 1.4306 13.5 5.63532C13.5 9.46762 14.8403 10.5737 14.85 10.5812C15.0158 10.7051 15.0497 10.9399 14.9257 11.1057C14.8966 11.1445 14.8602 11.1774 14.8185 11.2024C13.8646 11.694 12.833 12.0175 11.769 12.1586L11.9348 12.8203L14.8072 13.5382C16.6853 14.0051 18.0027 15.6915 18 17.6253C18 17.8322 17.8321 18 17.625 18H0.374987C0.167881 18 -2.47955e-05 17.8322 -2.47955e-05 17.6253C-0.00308418 15.6913 1.31436 14.0044 3.19275 13.5375Z" fill="#0008C1"/>
</svg>
