<svg width="19" height="18" viewBox="0 0 19 18" fill="none" xmlns="http://www.w3.org/2000/svg">
<path d="M18.989 17.5343L18.514 15.7343C18.2887 14.861 17.6054 14.1588 16.705 13.875L13.2217 12.7755C12.3722 12.4403 11.9835 11.1443 11.8996 10.6522C12.5469 10.1423 12.9633 9.41685 13.0634 8.62499C13.0491 8.48974 13.0828 8.35383 13.1591 8.23873C13.2826 8.20944 13.3836 8.1257 13.4307 8.01373C13.6586 7.49088 13.8016 6.93837 13.855 6.37499C13.8551 6.34437 13.8512 6.31389 13.8431 6.28425C13.7864 6.06533 13.6506 5.87215 13.4592 5.73824V3.74998C13.4592 2.54173 13.0697 2.04599 12.6596 1.75873C12.5813 1.17675 11.9234 0 9.50089 0C7.35163 0.0819844 5.62909 1.71387 5.54255 3.75001V5.73827C5.35114 5.87218 5.21528 6.06537 5.15858 6.28429C5.15056 6.31392 5.14659 6.34444 5.1467 6.37502C5.19999 6.93868 5.34305 7.49145 5.57105 8.01453C5.60534 8.12053 5.69525 8.20206 5.80855 8.2298C5.85289 8.25078 5.93602 8.35956 5.93602 8.62506C6.03662 9.41917 6.45551 10.1463 7.10611 10.6561C7.02299 11.1473 6.63664 12.4426 5.81096 12.7696L2.29674 13.875C1.3971 14.1588 0.714283 14.8603 0.488584 15.7328L0.0135835 17.5328C-0.040188 17.7336 0.0879879 17.9376 0.299882 17.9885C0.331537 17.9962 0.364082 18 0.396738 18.0001H18.6051C18.8237 18 19.0009 17.8321 19.0008 17.625C19.0008 17.5943 18.9968 17.5639 18.989 17.5343Z" fill="#939393"/>
</svg>
